<svg width="31" height="31" viewBox="0 0 31 31" fill="none" xmlns="http://www.w3.org/2000/svg">
    <circle cx="15.25" cy="15.5" r="15" fill="#116DFF"/>
    <path fill-rule="evenodd" clip-rule="evenodd" d="M7.26688 10.316L13.9484 16.0429L14.0841 16.1495C14.7798 16.6493 15.7202 16.6493 16.4159 16.1495L16.5516 16.0429L23.2333 10.317C23.2443 10.3764 23.25 10.4375 23.25 10.5V20.5C23.25 21.0523 22.8023 21.5 22.25 21.5H8.25C7.69772 21.5 7.25 21.0523 7.25 20.5V10.5C7.25 10.4372 7.2558 10.3757 7.26688 10.316ZM22.25 9.5C22.3665 9.5 22.4784 9.51993 22.5824 9.55656L15.9008 15.2836L15.8037 15.3572C15.4723 15.5779 15.0398 15.5801 14.7064 15.3638L14.5992 15.2836L7.91763 9.55656C8.02161 9.51993 8.13348 9.5 8.25 9.5H22.25Z" fill="white"/>
</svg>
