<svg width="31" height="31" viewBox="0 0 31 31" fill="none" xmlns="http://www.w3.org/2000/svg">
<circle cx="15.25" cy="15.5" r="15" fill="white"/>
<path fill-rule="evenodd" clip-rule="evenodd" d="M15.25 0.5C23.5343 0.5 30.25 7.21572 30.25 15.5C30.25 22.9869 24.7647 29.1925 17.5938 30.3178V19.8359H21.0889L21.7539 15.5H17.5938V12.6862C17.5938 11.5 18.1749 10.3438 20.0382 10.3438H21.9297V6.65234C21.9297 6.65234 20.2131 6.35938 18.572 6.35938C15.1456 6.35938 12.9062 8.43594 12.9062 12.1953V15.5H9.09766V19.8359H12.9062V30.3178C5.73528 29.1925 0.25 22.9869 0.25 15.5C0.25 7.21572 6.96572 0.5 15.25 0.5Z" fill="#1877F2"/>
</svg>
