<svg width="31" height="31" viewBox="0 0 31 31" fill="none" xmlns="http://www.w3.org/2000/svg">
<circle cx="15.25" cy="15.5" r="15" fill="#2466C1"/>
<path fill-rule="evenodd" clip-rule="evenodd" d="M11.5 13H9V21.75H11.5V13ZM16.5 13H14V21.75H16.5V17.375L16.5086 17.1944C16.5994 16.2436 17.4004 15.5 18.375 15.5C19.3496 15.5 20.1506 16.2436 20.2414 17.1944L20.25 17.375V21.75H22.75V16.75L22.7436 16.5297C22.6296 14.5611 20.9971 13 19 13C18.1357 13 17.3396 13.2924 16.7054 13.7837L16.5001 13.9548L16.5 13ZM10.25 9.25C9.55964 9.25 9 9.80964 9 10.5C9 11.1904 9.55964 11.75 10.25 11.75C10.9404 11.75 11.5 11.1904 11.5 10.5C11.5 9.80964 10.9404 9.25 10.25 9.25Z" fill="white"/>
</svg>
