<svg width="31" height="31" viewBox="0 0 31 31" fill="none" xmlns="http://www.w3.org/2000/svg">
<circle cx="15.75" cy="15.5" r="15" fill="white"/>
<path fill-rule="evenodd" clip-rule="evenodd" d="M15.7623 0.5C7.47157 0.5 0.75 7.21053 0.75 15.4877C0.75 21.8405 4.70386 27.2681 10.2887 29.4515C10.1528 28.2673 10.0416 26.4416 10.3381 25.1464C10.6099 23.9745 12.0926 17.6957 12.0926 17.6957C12.0926 17.6957 11.6478 16.7952 11.6478 15.4753C11.6478 13.3906 12.8587 11.8363 14.3661 11.8363C15.6511 11.8363 16.2689 12.7985 16.2689 13.9457C16.2689 15.2286 15.4534 17.153 15.021 18.9416C14.6627 20.4342 15.7747 21.6554 17.245 21.6554C19.9139 21.6554 21.9649 18.8429 21.9649 14.7969C21.9649 11.2072 19.3826 8.70312 15.6882 8.70312C11.4131 8.70312 8.90484 11.898 8.90484 15.2039C8.90484 16.4868 9.39907 17.8684 10.0169 18.6209C10.1404 18.7689 10.1528 18.9046 10.1157 19.0526C10.0045 19.5214 9.74504 20.5452 9.69561 20.7549C9.63383 21.0263 9.47321 21.088 9.18902 20.9523C7.31094 20.0765 6.13714 17.3503 6.13714 15.1423C6.13714 10.4178 9.57206 6.07566 16.0589 6.07566C21.2607 6.07566 25.3134 9.77632 25.3134 14.7352C25.3134 19.9038 22.0514 24.0609 17.5292 24.0609C16.0094 24.0609 14.5762 23.2714 14.0943 22.3339C14.0943 22.3339 13.3406 25.1957 13.1552 25.8988C12.8216 27.2064 11.9073 28.8347 11.2895 29.8339C12.6981 30.2656 14.1808 30.5 15.7376 30.5C24.0284 30.5 30.7499 23.7895 30.7499 15.5123C30.7746 7.21053 24.0531 0.5 15.7623 0.5Z" fill="#E60019"/>
</svg>
