<svg width="31" height="31" viewBox="0 0 31 31" fill="none" xmlns="http://www.w3.org/2000/svg">
<mask id="mask0_2302_7085" style="mask-type:luminance" maskUnits="userSpaceOnUse" x="0" y="0" width="31" height="31">
<path fill-rule="evenodd" clip-rule="evenodd" d="M0.25 0.5H30.25V30.5H0.25V0.5Z" fill="white"/>
</mask>
<g mask="url(#mask0_2302_7085)">
<path fill-rule="evenodd" clip-rule="evenodd" d="M30.2501 15.4983C30.2501 23.7798 23.533 30.5 15.2489 30.5C6.96277 30.5 0.247803 23.7798 0.247803 15.4983C0.247803 7.21672 6.96277 0.5 15.2489 0.5C23.533 0.5 30.2501 7.21672 30.2501 15.4983Z" fill="#27D366"/>
</g>
<path fill-rule="evenodd" clip-rule="evenodd" d="M16.2853 22.5806C15.8778 22.6495 15.4682 22.6862 15.2524 22.6817C13.6655 22.677 12.3717 22.3232 11.1818 21.6066C11.0296 21.5146 10.8968 21.4915 10.7191 21.5377C9.91923 21.7581 9.11373 21.9557 8.31271 22.167C8.14416 22.2176 8.12809 22.1809 8.17091 22.0291C8.38311 21.2711 8.58288 20.5175 8.8022 19.7685C8.86319 19.5572 8.84145 19.3963 8.7202 19.2078C7.07442 16.575 7.14368 13.2943 8.98563 10.8589C10.8992 8.32253 13.5005 7.28407 16.6131 7.94565C19.6806 8.58909 21.6357 10.5601 22.3547 13.5976C23.3368 17.7514 20.5045 21.8821 16.2853 22.5806ZM23.8296 13.1701C22.8381 9.07608 19.2998 6.28351 15.0227 6.23529C14.4594 6.24447 13.8697 6.29032 13.2869 6.41219C7.32022 7.61484 4.22843 14.1994 7.13683 19.5158C7.21175 19.6582 7.21768 19.7732 7.17605 19.9202C6.78937 21.3217 6.40621 22.7231 6.02071 24.1199C5.95835 24.3497 5.95835 24.3497 6.18926 24.29C7.64924 23.9086 9.10688 23.5317 10.5657 23.1459C10.6867 23.1137 10.7815 23.1273 10.8921 23.1826C12.7711 24.1382 14.7504 24.4187 16.823 24.019C21.7752 23.0631 25.0114 18.0499 23.8296 13.1701Z" fill="#FFFEFD"/>
<path fill-rule="evenodd" clip-rule="evenodd" d="M17.505 19.908C17.1948 19.9217 16.8989 19.8489 16.6018 19.7671C14.6054 19.1812 13.1072 17.9049 11.9035 16.2242C11.4486 15.5928 11.0272 14.9388 10.887 14.153C10.719 13.2081 10.9848 12.4087 11.6734 11.7545C11.8926 11.5501 12.5598 11.4594 12.8268 11.5911C12.9258 11.6411 12.9892 11.732 13.0304 11.8273C13.2828 12.4406 13.532 13.0446 13.7789 13.6578C13.8257 13.776 13.8056 13.8895 13.7534 14.0076C13.6265 14.2893 13.4229 14.5162 13.2161 14.7388C13.0593 14.9025 13.0525 15.0523 13.1682 15.2476C13.8735 16.4468 14.8489 17.3189 16.1248 17.8412C16.315 17.9184 16.4585 17.8912 16.5852 17.7277C16.7977 17.4598 17.0223 17.1917 17.2237 16.9147C17.3615 16.7193 17.5196 16.6921 17.7142 16.7828C18.1358 16.9782 18.5572 17.1826 18.9789 17.387C19.0735 17.428 19.1668 17.478 19.2602 17.5233C19.6873 17.7415 19.683 17.7459 19.6463 18.2273C19.575 19.1675 18.8844 19.631 18.0656 19.8626C17.8855 19.9124 17.6941 19.9171 17.505 19.908Z" fill="#FFFFFE"/>
</svg>
